<svg xmlns="http://www.w3.org/2000/svg" viewBox="0 0 300 313"><defs><style>.cls-1{fill:#9dcead;}</style></defs><title>img_about</title><g id="Calque_2" data-name="Calque 2"><g id="logo1"><path class="cls-1" d="M78.34,42.47c-7.87-12.25-23.75-10.48-32.22,0-10.23,12.62-16.3,31.32-11.7,47.39,1.7,5.93,5.54,13.2,12.13,14.51,5.58,1.12,10.83-2.69,14.55-6.46C70.44,88.4,74.76,75.2,77,62.37c2.1-12,2.3-24.12,3.11-36.23.22-3.28-3.16-.48-4.14.53-2.27,2.34-4.8,5.87-5.21,9.22-1.56,12.78-1.9,25.79-2.17,38.64-.12,5.72-1.55,27.35,10.09,21.81,7.3-3.48,12.67-13,14.4-20.61.78-3.38-3.43-.19-4.14.54a20,20,0,0,0-5.2,9.22c.07-.32-.35.75.12-.38.24-.46.19-.37-.17.27a10.22,10.22,0,0,1,.85-1.32c.78-1.19.64-.37-.19-.13-3,.85-4.69-2-5.59-4.45-1.5-4-.93-8.62-.86-12.86.23-13.47.57-27.11,2.21-40.48l-9.35,9.75c-1.13,16.94-.34,36.48-7.55,51.74.66-1.4-1,2.23-.55,1s-1,1.62.3-.4c-.23.35-.55.64-.78,1,.44-.63.26-.24-.4.24a13.55,13.55,0,0,1-2.14,1.27c-4.42,2-8.63-.25-11.53-3.73-7.93-9.5-7.29-26.79-1.79-36.93.07-.13.79-1.31.19-.36.36-.58.73-1.82.55-.85l.44-.57-1.09,1.14c0-.14.93-.72,1.07-.78a17.61,17.61,0,0,1,7-1.89c6.39-.26,11.83,3.2,15.22,8.49.87,1.34,11-9,8.6-12.8Z"/><path class="cls-1" d="M8.34,178.59C15.47,163.38,24,148.92,30.5,133.4l-8.32,9.93c-.42,41.67-3.83,83.11-7.37,124.61q-1.91,22.33-3.69,44.68c-.14,1.79,4.28-3.28,4.44-3.49,1.7-2.27,4.24-5.46,4.47-8.43,3.52-44.52,8.22-89,10.14-133.62q.76-17.82.92-35.67c0-1.68-3.31,2.06-3.29,2a31.23,31.23,0,0,0-5,7.88c-6.51,15.5-15,30-22.17,45.18-.07.16-1,2.08-.43,2.44s2-1.19,2.09-1.31a31.56,31.56,0,0,0,6.08-9Z"/><path class="cls-1" d="M28.73,177.25c2.39-3.65,5-7.07,7.75-10.49,2.23-2.81,6-7,5.35-10.87-.17-1-1.45-.7-2-.42-4.68,2.31-8.62,9-7,14.24a104.41,104.41,0,0,0,3.84,10c3.49,8.18,7.3,17.49,13.39,24.12,2.26,2.47,4.67,3.47,7.6,1.34,3.14-2.3,5.17-5.86,7-9.21a232.74,232.74,0,0,0,11.66-24.57c4.3-10.52,8.25-21.54,9.68-32.88.54-4.35.72-9.06-.46-13.32s-4.79-9.28-9.36-9.87c-6.34-.81-11.29,9.3-12.42,14.31-1.29,5.7.52,11.36,3.9,16,3.55,4.87,8.81,8.14,14.1,10.79,2.46,1.22,5,2.32,7.48,3.44.64.29,2.47.76,2.93,1.36.94,1.25.69,4.55.87,6.08.89,7.56,1.7,15.25,3.49,22.66.36,1.5.83,4.57,2.26,5.51,2.2,1.46,5.09-2.22,6.24-3.66,4-4.95,6.29-11.28,8.54-17.15,2.13-5.56,4.51-11.32,5.69-17.17l-9.18,9.34c.66,9.16,7.91,28.16,19.52,19,12.4-9.77,14-28.87,13.25-43.4-.34-7.1-1.1-14.4-3.43-21.16-2.61-7.56-9.69-17.57-18.61-12.22-9.62,5.77-15.53,19.92-14.06,30.87,1.35,10.08,9.65,18.49,19.94,13.6,5.74-2.72,10.43-7.82,14.48-12.6A92.45,92.45,0,0,0,152,124.66c5.94-11.15,9.89-23.18,13.63-35.21l-9.24,8.36c2.92,54.62-.6,109.31-2.73,163.88-.12,3.31,3.27.7,4.36-.39,2.18-2.19,5-6,5.14-9.26,2.13-54.57,5.65-109.26,2.73-163.88-.15-2.76-2.36-1.39-3.76-.14a19.51,19.51,0,0,0-5.48,8.51c-4.36,14-8.63,29.94-19.32,40.57-2.72,2.7-6.14,5.25-10.18,5s-7.11-3.38-8.87-6.69a20.14,20.14,0,0,1-2.24-10.88c0-.42,1.16-5,1.17-4.93.24.24-1.15,1.34-1.06,1.46-.17-.22,3.25-.47,3.52-.41,6.24,1.28,9.57,9.27,11.1,14.72a77.77,77.77,0,0,1,2.54,16.33,89.85,89.85,0,0,1-.66,17.66,44.44,44.44,0,0,1-1.35,6.26c-.17.62-.93,1.49-.71,1.91-.16-.31.2-.48.63-1-.93,1.2,1.1-1.2,1.25-1.4.35-.45.11.09-.63.15a5.75,5.75,0,0,1-2.67-.2c-2.45-.86-4.22-3.3-5.4-5.49a37.26,37.26,0,0,1-4.34-14.3c-.17-2.31-4,1.12-4.29,1.37-2,2.05-4.31,5.07-4.89,8-1.59,7.9-5,15.72-8.28,23-.44,1,1-1.22,0,0-.17.22-.21.54-.41.74l.71-1.15,5.32-4.29c0,.1-.33-.48-.3-.19-.1-1-1.11-3-1.42-4.3a155.11,155.11,0,0,1-2.76-16.75q-.56-4.37-1.05-8.75c-.11-.94,0-2.75-.41-3.58s-1.7-1.24-2.63-1.66a134.77,134.77,0,0,1-13-6.31c-4.29-2.56-8.53-5.85-11-10.32a18.34,18.34,0,0,1-2.32-7.16c0-.18,0-1,.06-1.53,0-1.42,0-.34,0-.29.2-.69.18-.69-.07,0L68,128.2c.15.17,1.86.63,2.24.85a15.79,15.79,0,0,1,3.26,2.67,10.46,10.46,0,0,1,2.24,3.64,22.69,22.69,0,0,1,1.1,9.58c-.52,8.37-3.25,17.05-6,24.55-1.53,4.11-3.21,8.16-5,12.17-.81,1.82-1.63,3.62-2.48,5.42-.43.91-.87,1.82-1.31,2.73-.14.3-.62,1.25.07-.13-.24.48-.48,1-.73,1.44-1.11,2.21-2.29,4.39-3.48,6.56a7.94,7.94,0,0,0-.52.89c.51-1.47,1.07-1.59,2.19-2.86-.91,1,2.46-3,2.69-2.38,0,0-.43.07-.45,0A6.18,6.18,0,0,1,61,193c-2.62-1.47-4.48-4.59-6-7.06a119.39,119.39,0,0,1-6.32-12c-1.77-3.8-3.43-7.67-4.94-11.59-.5-1.3-1-2.61-1.42-3.94-.14-.44-.23-.92-.41-1.35-.44-1.05.39-2-.37,1.17l-3.66,6.58,0,0L34.36,168l.1-.05-2-.42v0L34,162.1c0-.09,3-4,1.37-2.16-.29.33-.55.69-.82,1-.94,1.19-1.89,2.37-2.82,3.58-2.49,3.22-4.89,6.51-7.12,9.92-.81,1.24-4.27,6.43-2.25,7.79s5.7-4,6.35-5Z"/><path class="cls-1" d="M164.19,136.37c3.05-4.84,6.46-9.38,9.89-14l-5.52,2.76a131,131,0,0,0,8.72,19.37c3.16,6,6.45,12.42,10.9,17.59,1.06,1.23,2.25,2.59,4,2.36,3.38-.43,6.39-4.84,8.14-7.31,4.42-6.23,7.32-13.5,9.91-20.64,2.75-7.55,5.36-15.4,6.51-23.38l-9.49,9.66c-.18,10.34,2.46,21.47,9.09,29.65,8.45,10.44,19.18-9.24,21.69-15.63,6.67-16.92,7.56-37.9-3.27-53.26-11.7-16.59-32.66,4-31.41,19,.38,4.49,2.64,8.48,5.53,11.85,1.83,2.14,3.53,3.93,6.49,3.83,5.5-.19,10.77-5.44,14.44-9,12.28-11.85,21.63-26.65,31.33-40.59l-6.34,5c10.22,9.31,16,21.63,18.61,35.11a90.34,90.34,0,0,1,1.74,20.55c-.08,2.09-.84,4.31-.85,6.33,0-.85.28-.33,0,0,1.16-1.28,1.63-3.07,2.95-4.3.11-.11,1.14-1.2,1.07-.88s-.49.06-.23.09c-4.44-.45-6.93-3.12-8.33-6.92A29.55,29.55,0,0,1,268,112a24.7,24.7,0,0,1,.93-5.86c.05-.16.72-2.33.52-1.49.06-.26.83-1.3,0-.09-.92,1.39.72-.47-.2.24,3.61-2.79,8.31-4.7,13.06-2.06s9.73,8.57,7.82,14.27c-.94,2.79.76,3.51,2.88,2,2.85-2.09,5-5.75,6.09-9,2.37-7-.3-14.2-6.13-18.63-5.51-4.18-11.55-3.41-17.21.07-12.13,7.47-18.65,23-17.06,37,.69,6,3.27,14.67,10.51,15.47,5.26.58,9.45-5.6,11.66-9.56,3.63-6.5,4-13.85,3.68-21.14C283.65,93.6,278.2,74.42,263.42,61c-1.73-1.57-5.87,4.33-6.35,5-6.54,9.41-12.29,18-19.19,26.51a65.51,65.51,0,0,1-9.57,10c-1.79,1.41-4.6,3.61-7.33,2.41-2.57-1.13-4.76-4.52-6.06-6.85-1.68-3-1.78-5.43-2-8.71l.21-.72a8.68,8.68,0,0,1-1.58,2.75c-1.25,1.82-1.15.79-.3.45a17.62,17.62,0,0,1,2.89-1.16,10.05,10.05,0,0,1,8,1.26c4.38,3.13,7.14,9.09,9,14,2.43,6.37,2.55,14,2.09,20.76a48.9,48.9,0,0,1-2.74,13.47c-.23.64-.49,1.27-.75,1.91-1.45,3.59.37-.4.64,0,.1.13-1.5.29-1.65.28a5.71,5.71,0,0,1-3.44-2.22c-6.09-6.92-8.67-17.91-8.51-26.91.06-3.28-3.21-.73-4.34.4-2.38,2.4-4.65,5.83-5.15,9.26-.9,6.28-3.35,13.68-5.74,20.11-.74,2-1.54,4-2.39,5.95a39.69,39.69,0,0,1-1.91,4c-1,2,.24-.28-.41.71s1.27-1.49,1.71-1.81c-.7.52.64-.73.53-.32.07-.25.32.37-.23-.19-4.56-4.76-7.81-10.27-11-16.09-3.75-6.94-7.44-14.13-9.93-21.63-.87-2.62-5.09,2.2-5.52,2.76-4.24,5.67-8.55,11.27-12.32,17.26-.78,1.25-4.28,6.42-2.25,7.79s5.71-4,6.34-5Z"/><path class="cls-1" d="M41.65,12.35c1.18,5.36,6.15,9.5,10.86,11.75,6,2.89,12.56,2.77,18.06-1.2,2.76-2,4.87-5.4,6.37-8.42.45-.9,2.27-5.47-.34-3.58-4.93,3.57-11.13,2.7-16.26,0-4-2.09-8.64-5.76-9.66-10.41C50.22-1.58,46.31,3.4,46,3.83c-1.33,1.75-4.88,6-4.32,8.52Z"/></g></g></svg>